<svg xmlns="http://www.w3.org/2000/svg" viewBox="0 0 64 64"><defs><style>.cls-1{fill:#ffd939;}.cls-2{fill:#fff;}.cls-3{fill:none;stroke:red;stroke-miterlimit:10;stroke-width:3px;}</style></defs><title>sem_som</title><g id="Camada_2" data-name="Camada 2"><g id="Layer_1" data-name="Layer 1"><rect class="cls-1" width="64" height="64" rx="12" ry="12"/><path class="cls-2" d="M53.13,4.8a1,1,0,0,0-.79-.24l-31,4a1,1,0,0,0-.87,1V45.83A9.92,9.92,0,0,0,13,42.56c-5.25,0-9.5,3.78-9.5,8.44s4.25,8.44,9.5,8.44,9.5-3.78,9.5-8.44a7.59,7.59,0,0,0-.07-1,1,1,0,0,0,.07-.34v-29l29-3.75V35.83A9.93,9.93,0,0,0,44,32.56c-5.25,0-9.5,3.78-9.5,8.44s4.25,8.44,9.5,8.44,9.5-3.78,9.5-8.44c0-.09,0-.18,0-.27s0,0,0-.08V5.56A1,1,0,0,0,53.13,4.8Z"/><line class="cls-3" x1="3.47" y1="3.59" x2="60.41" y2="60.53"/></g></g></svg>